PathFileType	4	(X/Y/Z)	C:/Users/opensim2020/Desktop/walking_exp_matlab/subject01_walking06_straight_04.trc																																																																																																																															
DataRate	CameraRate	NumFrames	NumMarkers	Units	OrigDataRate	OrigDataStartFrame	OrigNumFrames																																																																																																																											
100	100	4	43	mm	100	2922	212																																																																																																																											
Frame#	Time	LFHD			RFHD			LBHD			RBHD			C7			T10			CLAV			STRN			RBAK			LSHO			LUPA			LELB			LFRM			LWRA			LWRB			LFIN			RSHO			RUPA			RELB			RFRM			RWRA			RWRB			RFIN			LASI			RASI			LPSI			RPSI			LTHI			LKNE			LTIB			LANK			LHEE			LTOE			RTHI			RKNE			RTIB			RANK			RHEE			RTOE			*39			*40			*41			*42		
		X1	Y1	Z1	X2	Y2	Z2	X3	Y3	Z3	X4	Y4	Z4	X5	Y5	Z5	X6	Y6	Z6	X7	Y7	Z7	X8	Y8	Z8	X9	Y9	Z9	X10	Y10	Z10	X11	Y11	Z11	X12	Y12	Z12	X13	Y13	Z13	X14	Y14	Z14	X15	Y15	Z15	X16	Y16	Z16	X17	Y17	Z17	X18	Y18	Z18	X19	Y19	Z19	X20	Y20	Z20	X21	Y21	Z21	X22	Y22	Z22	X23	Y23	Z23	X24	Y24	Z24	X25	Y25	Z25	X26	Y26	Z26	X27	Y27	Z27	X28	Y28	Z28	X29	Y29	Z29	X30	Y30	Z30	X31	Y31	Z31	X32	Y32	Z32	X33	Y33	Z33	X34	Y34	Z34	X35	Y35	Z35	X36	Y36	Z36	X37	Y37	Z37	X38	Y38	Z38	X39	Y39	Z39	X40	Y40	Z40	X41	Y41	Z41	X42	Y42	Z42	X43	Y43	Z43
																																																																																																																																		
133	1.32	111.65973	1652.76575	1046.79639	145.8744	1655.76074	1157.19946	-4.63699	1613.63501	1077.69714	28.75551	1616.81421	1193.59985	-43.43739	1415.3269	1111.32043	-69.9446	1119.47791	1116.82703	102.85437	1349.34082	1104.03162	148.84395	1197.46851	1098.45801	-90.87111	1219.95874	1191.37317	35.0077	1378.18896	944.66461	-13.81818	1194.38696	864.39185	-47.73852	1050.15649	871.15002	-38.86233	937.47241	847.04126	3.82078	804.0733	868.17798	-48.56384	815.2417	840.42297	-25.57094	732.58289	837.90637	45.52127	1375.98413	1258.42236	13.37714	1176.56543	1368.24121	32.94688	1051.44226	1381.1521	105.05311	952.76349	1412.87915	226.74117	882.82837	1394.78711	187.17561	863.80859	1432.27173	255.3107	814.90131	1435.67236	116.22377	919.65717	1015.32867	100.23556	914.74103	1233.58313	-73.54715	928.08234	1048.58569	-83.29801	936.7428	1192.18335	162.36992	603.77362	954.78656	187.01636	474.72574	972.27411	178.7621	286.81946	963.06989	210.41008	69.23457	1007.06549	169.85158	36.79092	1060.58569	356.72241	46.63828	1007.02466	-27.85764	596.64697	1287.0531	-64.68961	437.78085	1267.42651	-195.62018	317.01505	1271.91626	-314.80002	143.5246	1230.01477	-372.18942	138.53043	1179.21777	-217.66876	35.90248	1218.17664	130.74365	1689.96265	1136.60522	-1973.16504	1023.25256	3101.84424	-2012.55737	1022.02997	3140.5332	NaN	NaN	NaN
134	1.33	122.56504	1653.15833	1044.13342	156.47824	1656.20654	1154.68518	6.2404	1614.17505	1074.66785	39.22239	1617.38464	1190.74487	-31.98175	1415.75488	1108.24304	-58.51848	1119.71167	1115.20874	113.83728	1349.9021	1101.65735	160.31949	1198.09619	1096.11975	-79.86045	1219.91016	1188.64124	46.05215	1377.75867	942.03168	-1.02022	1193.34351	862.32477	-34.21095	1048.88611	869.24158	-24.74272	936.14825	845.21863	18.08473	802.92249	866.9303	-33.97076	813.93121	838.59271	-10.83325	731.45929	836.61798	56.16413	1376.28784	1256.02185	22.79345	1176.76636	1365.51135	42.03003	1051.61938	1378.86243	113.26364	952.38306	1411.38403	234.34	881.26306	1393.23572	194.57173	862.81311	1431.03125	262.28894	813.38751	1434.4458	128.55243	920.07587	1013.69556	112.42568	914.72876	1231.80469	-61.49682	928.7243	1047.42944	-71.05483	935.98517	1191.29993	173.30289	604.77502	952.26233	199.41896	476.8367	972.06232	189.68265	288.44312	961.16614	212.75529	69.47944	1006.82379	171.26967	37.67078	1059.76282	358.85947	42.14485	1007.04248	-12.56813	595.60828	1286.34448	-48.46756	436.5643	1268.2511	-183.14966	319.88663	1272.1886	-307.07901	149.69598	1230.84485	-363.66895	147.70537	1179.47815	-216.76663	35.81185	1218.10754	141.7021	1690.68384	1134.34998	-1973.17126	1023.32043	3101.91382	-2012.56238	1022.04559	3140.6626	NaN	NaN	NaN
135	1.34	133.50081	1653.23584	1041.76624	167.04579	1656.67615	1152.0033	16.76728	1614.67053	1071.21875	49.67324	1617.91919	1187.84875	-20.7003	1416.271	1105.72546	-47.82728	1120.08142	1113.61572	124.87154	1350.60181	1099.21765	171.79756	1198.92505	1093.87695	-68.79527	1220.11475	1186.20569	56.94078	1377.56445	939.61334	11.69907	1192.68726	860.10248	-20.34904	1048.02686	867.14941	-10.29043	935.31195	843.41302	32.94483	802.28345	865.60638	-18.78415	813.02338	836.73883	4.50575	730.59387	835.2135	67.03257	1376.8418	1253.57166	32.00179	1177.14648	1362.67432	51.07608	1052.17688	1376.47217	121.22141	952.10974	1409.15137	241.50496	879.75537	1391.6167	201.50948	861.79083	1429.20508	268.54425	811.81122	1433.21252	140.67992	921.10614	1012.02783	124.57655	915.00977	1229.85864	-49.78782	929.59656	1046.61304	-58.75263	935.52466	1190.63977	184.08882	606.03925	950.60583	211.41806	478.21896	972.19678	199.81454	289.3425	958.81342	214.84271	69.75895	1007.0498	172.4346	38.33451	1059.79578	360.83102	39.91307	1006.25153	3.52463	594.55713	1285.77307	-30.92627	435.43552	1269.86426	-168.99892	322.51279	1272.51062	-298.0257	156.3042	1231.5863	-352.94061	156.93881	1178.93201	-215.69096	35.82605	1217.82373	152.56581	1691.24231	1131.76904	-1973.19788	1023.49371	3101.89551	-2012.56079	1022.00604	3140.79321	NaN	NaN	NaN
136	1.35	144.29259	1653.61572	1039.12634	177.47523	1657.21143	1149.48218	27.45993	1615.03064	1068.16675	60.09621	1618.45093	1185.03601	-9.86726	1416.61377	1103.76868	-36.57948	1120.43335	1111.9447	135.75427	1351.17615	1096.78918	183.34103	1199.80005	1091.56201	-57.64851	1220.43958	1183.93823	67.62607	1377.61487	937.27252	24.45194	1192.24158	857.90063	-6.54278	1047.2251	865.30054	4.4087	934.8139	841.48596	48.43207	801.96759	864.18451	-3.16572	812.52991	834.8913	20.61384	729.93396	833.87756	78.06611	1377.48145	1251.15576	41.09377	1177.76465	1359.81567	60.02794	1052.98901	1374.04553	128.90315	952.29742	1407.03674	248.12842	878.13281	1389.91541	207.93626	860.97498	1427.55237	274.21295	810.05145	1431.82715	152.04712	922.37982	1010.52191	136.41573	915.33673	1227.61841	-38.389	930.4696	1045.96179	-46.60103	935.35272	1190.04565	195.5685	607.26587	950.12549	222.48964	478.3338	972.27698	208.77968	289.14194	956.64972	216.33577	69.93518	1007.53076	173.11261	38.65378	1059.78088	362.62408	38.52309	1006.46381	20.30597	593.44299	1285.58447	-12.39987	434.13321	1271.27856	-153.62616	325.03702	1272.76831	-287.17236	162.8992	1231.85974	-340.39673	166.82603	1178.03259	-215.25568	35.63516	1217.5415	163.46295	1691.79321	1129.14771	-1973.19873	1023.38654	3101.75684	-2012.58875	1021.99811	3140.61865	NaN	NaN	NaN
